<svg width="110" height="143" viewBox="0 0 110 143" fill="none" xmlns="http://www.w3.org/2000/svg">
<path d="M79.9953 78.3167C86.1492 78.8997 91.2615 79.2159 92.5253 79.2159C96.8155 79.2159 100.326 75.7817 100.326 71.5C100.326 67.2183 96.8155 63.7841 92.5253 63.7841C91.2602 63.7841 86.1374 64.1356 79.9997 64.6829L79.9969 64.6832C69.5941 65.6305 60.9362 57.0484 61.8888 46.8478C62.4798 40.7764 62.8006 35.7296 62.8006 34.4793C62.8006 30.1976 59.2902 26.7634 55 26.7634C50.7098 26.7634 47.1994 30.1976 47.1994 34.4793C47.1994 35.7308 47.556 40.7877 48.1107 46.842L48.111 46.8448C49.0655 57.0462 40.4078 65.6297 30.0048 64.6833C23.8509 64.1003 18.7386 63.7841 17.4747 63.7841C13.1845 63.7841 9.67405 67.2183 9.67405 71.5C9.67405 75.7817 13.1845 79.2159 17.4747 79.2159C18.7398 79.2159 23.8626 78.8644 30.0003 78.3171L30.0031 78.3168C40.4058 77.3695 49.0638 85.9516 48.1112 96.1521C47.5202 102.224 47.1994 107.27 47.1994 108.521C47.1994 112.802 50.7098 116.237 55 116.237C59.2902 116.237 62.8006 112.802 62.8006 108.521C62.8006 107.269 62.444 102.212 61.8893 96.158L61.889 96.1552C60.9345 85.9538 69.5923 77.3702 79.9953 78.3167ZM79.9953 78.3167C79.994 78.3166 79.9927 78.3164 79.9914 78.3163L80.1329 76.823L79.9969 78.3168C79.9964 78.3168 79.9958 78.3167 79.9953 78.3167ZM1.5 71.5C1.5 32.4454 25.7814 1.5 55 1.5C84.2186 1.5 108.5 32.4454 108.5 71.5C108.5 110.555 84.2186 141.5 55 141.5C25.7814 141.5 1.5 110.555 1.5 71.5Z" stroke="#FF00DD" stroke-width="3"/>
</svg>
