<svg width="20" height="40" viewBox="0 0 20 40" fill="none" xmlns="http://www.w3.org/2000/svg">
    <path
        d="M10 40C15.5228 40 20 35.6109 20 30.1968C20 24.7826 15.5228 20.3935 10 20.3935C4.47715 20.3935 0 24.7826 0 30.1968C0 35.6109 4.47715 40 10 40Z"
        fill="white" />
    <path
        d="M10 20.3848C15.5228 20.3848 20 17.3152 20 13.5286C20 9.7421 15.5228 6.6725 10 6.6725C4.47715 6.6725 0 9.7421 0 13.5286C0 17.3152 4.47715 20.3848 10 20.3848Z"
        fill="white" />
    <path
        d="M10 6.73371C15.5228 6.73371 20 5.22632 20 3.36686C20 1.50739 15.5228 0 10 0C4.47715 0 0 1.50739 0 3.36686C0 5.22632 4.47715 6.73371 10 6.73371Z"
        fill="white" />
</svg>