<svg width="125" height="126" viewBox="0 0 125 126" fill="none" xmlns="http://www.w3.org/2000/svg">
<path d="M62.5145 125.1C62.3401 125.1 62.1365 125.041 61.9912 124.896L0.203536 63.1301C0.0581533 62.9847 0 62.8103 0 62.6069C0 62.4034 0.0872298 62.229 0.203536 62.0837L61.9912 0.317607C62.2819 0.0269434 62.7471 0.0269434 63.0088 0.317607L124.796 62.0837C124.942 62.229 125 62.4034 125 62.6069C125 62.8103 124.913 62.9847 124.796 63.1301L63.0379 124.896C62.8925 125.041 62.689 125.1 62.5145 125.1ZM1.74459 62.6069L62.5145 123.356L123.284 62.6069L62.5145 1.85813L1.74459 62.6069Z" fill="#A600FF"/>
<path d="M62.5145 113.88C62.3401 113.88 62.1366 113.822 61.9912 113.677L11.4562 63.1301C11.3108 62.9848 11.2526 62.8104 11.2526 62.6069C11.2526 62.4034 11.3399 62.229 11.4562 62.0837L61.9912 11.5663C62.2529 11.3047 62.7472 11.3047 63.0089 11.5663L113.573 62.1128C113.864 62.4034 113.864 62.8685 113.573 63.1301L63.0379 113.647C62.8925 113.793 62.689 113.88 62.5145 113.88ZM12.9972 62.6069L62.5145 112.107L112.032 62.6069L62.5145 13.1068L12.9972 62.6069Z" fill="#A600FF"/>
<path d="M62.5145 102.631C62.3401 102.631 62.1366 102.573 61.9912 102.428L22.6797 63.1302C22.5343 62.9849 22.4762 62.8105 22.4762 62.607C22.4762 62.4035 22.5634 62.2291 22.6797 62.0838L61.9912 22.786C62.2529 22.5244 62.7472 22.5244 63.0089 22.786L102.349 62.0838C102.64 62.3745 102.64 62.8395 102.349 63.1011L63.0379 102.428C62.8925 102.573 62.689 102.631 62.5145 102.631ZM24.2208 62.607L62.5145 100.887L100.808 62.607L62.5145 24.3266L24.2208 62.607Z" fill="#A600FF"/>
<path d="M62.5145 91.4116C62.3401 91.4116 62.1365 91.3535 61.9911 91.2082L33.9032 63.13C33.6125 62.8394 33.6125 62.3743 33.9032 62.1127L61.9911 34.0346C62.2528 33.773 62.7471 33.773 63.0088 34.0346L91.0968 62.1127C91.3875 62.4034 91.3875 62.8684 91.0968 63.13L63.0088 91.2082C62.8925 91.3244 62.689 91.4116 62.5145 91.4116ZM35.4734 62.6068L62.5145 89.6386L89.5557 62.6068L62.5145 35.5751L35.4734 62.6068Z" fill="#A600FF"/>
<path d="M62.5146 80.1629C62.3401 80.1629 62.1366 80.1047 61.9912 79.9594L45.1559 63.13C45.0105 62.9846 44.9523 62.8102 44.9523 62.6068C44.9523 62.4033 45.0396 62.2289 45.1559 62.0836L61.9912 45.2541C62.2819 44.9635 62.7472 44.9635 63.0089 45.2541L79.8442 62.0836C79.9896 62.2289 80.0477 62.4033 80.0477 62.6068C80.0477 62.8102 79.9605 62.9846 79.8442 63.13L63.0089 79.9594C62.8925 80.1047 62.689 80.1629 62.5146 80.1629ZM46.6969 62.6068L62.5146 78.4189L78.3322 62.6068L62.5146 46.7947L46.6969 62.6068Z" fill="#A600FF"/>
</svg>
