<svg width="55" height="55" viewBox="0 0 55 55" fill="none" xmlns="http://www.w3.org/2000/svg">
    <path
        d="M51.0539 23.5539C49.6569 23.5539 39.6936 24.277 32.6593 25.3676C38.4069 21.1642 45.9559 14.6201 46.9485 13.6397C48.4926 12.0956 48.4926 9.59559 46.9485 8.05147C45.4044 6.50735 42.9044 6.50735 41.3603 8.05147C40.3799 9.03186 33.8358 16.5931 29.6324 22.3407C30.723 15.3064 31.4461 5.34314 31.4461 3.94608C31.4461 1.76471 29.6814 0 27.5 0C25.3186 0 23.5539 1.76471 23.5539 3.94608C23.5539 5.34314 24.277 15.3064 25.3676 22.3407C21.1642 16.5931 14.6201 9.04412 13.6397 8.05147C12.0956 6.50735 9.59559 6.50735 8.05147 8.05147C6.50735 9.59559 6.50735 12.0956 8.05147 13.6397C9.03186 14.6201 16.5931 21.1642 22.3407 25.3676C15.3064 24.277 5.34314 23.5539 3.94608 23.5539C1.76471 23.5539 0 25.3186 0 27.5C0 29.6814 1.76471 31.4461 3.94608 31.4461C5.34314 31.4461 15.3064 30.723 22.3407 29.6324C16.5931 33.8358 9.04412 40.3799 8.05147 41.3603C6.50735 42.9044 6.50735 45.4044 8.05147 46.9485C9.59559 48.4926 12.0956 48.4926 13.6397 46.9485C14.6201 45.9681 21.1642 38.4069 25.3676 32.6593C24.277 39.6936 23.5539 49.6569 23.5539 51.0539C23.5539 53.2353 25.3186 55 27.5 55C29.6814 55 31.4461 53.2353 31.4461 51.0539C31.4461 49.6569 30.723 39.6936 29.6324 32.6593C33.8358 38.4069 40.3799 45.9559 41.3603 46.9485C42.9044 48.4926 45.4044 48.4926 46.9485 46.9485C48.4926 45.4044 48.4926 42.9044 46.9485 41.3603C45.9681 40.3799 38.4069 33.8358 32.6593 29.6324C39.6936 30.723 49.6569 31.4461 51.0539 31.4461C53.2353 31.4461 55 29.6814 55 27.5C55 25.3186 53.2353 23.5539 51.0539 23.5539Z"
        fill="#FF4E23" />
</svg>