<svg width="70" height="125" viewBox="0 0 70 125" fill="none" xmlns="http://www.w3.org/2000/svg">
<path d="M41.8055 0C42.4171 4.34587 41.8055 8.65954 41.1938 13.0054C40.5822 14.2287 36.848 29.0368 23.8747 38.3724C7.00635 50.5086 -3.35935 70.5318 2.2098 90.9735C6.55567 105.814 16.4385 116.952 28.8001 125C28.1884 118.208 28.8001 111.995 31.2788 105.814C33.1459 102.112 35.6247 98.3775 38.7151 94.6755C44.8959 87.8831 52.3321 82.9256 58.5129 76.101C62.2149 71.7551 64.6937 66.2181 67.1725 61.2606C70.8745 51.9894 70.2628 42.0744 67.7841 32.1916C63.4382 18.5746 53.5554 7.43626 41.8055 0Z" fill="#FF4E23"/>
</svg>
