<svg width="125" height="126" viewBox="0 0 125 126" fill="none" xmlns="http://www.w3.org/2000/svg">
<path d="M62.5 10.5161C33.75 10.5161 10.4167 33.8494 10.4167 62.5994C10.4167 91.3494 33.75 114.683 62.5 114.683C91.25 114.683 114.583 91.3494 114.583 62.5994C114.583 33.8494 91.25 10.5161 62.5 10.5161ZM62.5 104.266C39.5313 104.266 20.8334 85.5682 20.8334 62.5994C20.8334 39.6307 39.5313 20.9328 62.5 20.9328C85.4688 20.9328 104.167 39.6307 104.167 62.5994C104.167 85.5682 85.4688 104.266 62.5 104.266Z" fill="#FF00DD"/>
<path d="M62.496 83.4349C55.8814 83.4349 49.7876 80.4141 45.8293 75.1016L37.496 81.3516C43.4856 89.2682 52.5481 93.8516 62.496 93.8516C72.4439 93.8516 81.5064 89.2682 87.496 81.3516L79.1626 75.1016C75.2043 80.4141 69.1106 83.4349 62.496 83.4349Z" fill="#FF00DD"/>
<path d="M52.0833 36.5581H41.6666V57.3914H52.0833V36.5581Z" fill="#FF00DD"/>
<path d="M83.3333 36.5581H72.9166V57.3914H83.3333V36.5581Z" fill="#FF00DD"/>
</svg>
