<svg width="81" height="44" viewBox="0 0 81 44" fill="none" xmlns="http://www.w3.org/2000/svg">
    <path d="M5.8459 19.924H0V29.3604H10.7715L5.8459 19.924Z" fill="#FF00DD" />
    <path
        d="M17.1877 29.3604L11.3029 18.3945C14.4657 16.865 16.1637 14.5318 16.5266 11.4469C16.8896 8.36187 16.5526 5.22505 13.9213 2.56783C11.9379 0.564883 8.18002 0.0310456 6.25611 0.0013387H5.92367C6.02703 -0.000408944 6.13812 -0.000483134 6.25611 0.0013387H43.9025L42.1138 5.22505H21.5948V11.4469H31.8478V16.6576H21.5948V24.1886H35.5161V29.3604H17.1877Z"
        fill="#FF00DD" />
    <path
        d="M0 15.0373V4.86212C1.06721 4.86212 3.66827 4.90101 5.7422 4.90101C8.38646 4.90101 10.9141 6.80643 10.5641 10.7469C10.2841 13.8993 7.30197 14.9207 5.8459 15.0373H0Z"
        fill="#FF00DD" />
    <path d="M54.2592 29.3604H39.1066L40.9083 24.1886H52.3927L54.2592 29.3604Z" fill="#FF00DD" />
    <path d="M50.6039 19.1204H42.71L46.6505 7.8434L50.6039 19.1204Z" fill="#FF00DD" />
    <path d="M81 29.3604H59.7681L49.3596 0.0013387H64.5641V24.5515H81V29.3604Z" fill="#FF00DD" />
    <path
        d="M6.62362 35.8285H3.22756V36.0878C3.37014 36.0878 3.72012 36.0878 3.94047 36.2174C4.16083 36.347 4.38982 36.7704 4.45895 36.9433L7.45319 43.878H7.82909L10.4734 37.5914C10.5814 37.3105 10.8596 36.6788 11.1085 36.3988C11.3574 36.1189 11.6875 36.0834 11.8214 36.1007V35.8285H9.42343V36.1007C9.55305 36.1007 9.85636 36.1215 10.0326 36.2044C10.253 36.3081 10.3437 36.5025 10.3567 36.7488C10.3671 36.9458 10.3005 37.1679 10.266 37.2543L8.08833 42.5558C7.28036 40.6936 5.64887 36.9173 5.58665 36.7099C5.50888 36.4507 5.62554 36.2433 5.8459 36.1526C6.02218 36.08 6.43783 36.0791 6.62362 36.0878V35.8285Z"
        fill="#FF00DD" />
    <path
        d="M29.0869 35.8285H25.4705V36.1007C25.6692 36.0964 26.0978 36.0955 26.2223 36.1266C26.5541 36.22 26.6889 36.4248 26.6889 36.6451V42.5818C26.6889 42.6466 26.7148 42.8799 26.5593 43.1521C26.4349 43.3699 26.1618 43.4243 26.0408 43.4243H25.4705V43.7095H29.061V43.4243H28.6332C28.361 43.4243 28.1536 43.3206 28.011 43.178C27.897 43.0639 27.8598 42.7848 27.8555 42.6595V37.4099C27.8469 37.2846 27.8555 36.9044 27.8814 36.6451C27.9205 36.2548 28.1277 36.1915 28.2962 36.1266C28.431 36.0748 28.8795 36.0791 29.0869 36.0878V35.8285Z"
        fill="#FF00DD" />
    <path
        d="M69.6193 35.7896H63.9808V36.0748H63.9938C64.3827 36.0748 64.7275 36.0644 64.8623 36.2822C64.9971 36.4999 65.0221 36.805 65.0178 36.9303V41.804C65.0178 41.8688 65.0048 42.7632 64.953 42.9965C64.87 43.2973 64.5382 43.3811 64.3827 43.3854H63.8383V43.6706H70.3711L70.5137 41.2207H70.2415C70.2156 41.3892 70.0989 41.8818 69.6453 42.6206C69.2823 43.2117 68.6904 43.3768 68.4398 43.3854H66.9103C66.4825 43.3854 66.3529 43.178 66.2492 42.9965C66.1662 42.8514 66.1541 42.4262 66.1585 42.2318V39.6523H67.2862C67.9083 39.6523 68.025 39.8856 68.1028 40.1449C68.165 40.3523 68.1719 40.7239 68.1676 40.8837H68.4398V38.1876H68.1676C68.1676 38.6283 68.1676 39.0042 67.9213 39.1857C67.7243 39.3309 67.3812 39.3585 67.2343 39.3542H66.1585V36.0878H67.7658C68.4528 36.0878 68.6861 36.2044 69.036 36.5285C69.316 36.7877 69.4811 37.4488 69.5286 37.7469H69.8138L69.6193 35.7896Z"
        fill="#FF00DD" />
    <path fill-rule="evenodd" clip-rule="evenodd"
        d="M43.1249 35.8156H47.0524C47.2944 35.8199 47.9131 35.9192 48.4523 36.2822C49.1149 36.7281 49.1136 37.3745 49.1134 37.4949C49.1134 37.4969 49.1134 37.4989 49.1134 37.5006C49.1134 37.5036 49.1134 37.5073 49.1134 37.5116C49.1143 37.6564 49.1194 38.5233 48.4523 38.9135C47.7653 39.3153 46.9358 39.4449 46.9358 39.4449C47.2425 39.4709 47.9753 39.5797 48.4523 39.8079C49.0486 40.093 49.5152 40.7023 49.5152 41.3504C49.5152 41.9985 49.4245 42.8669 48.4523 43.3465C48.0246 43.5539 47.2339 43.6576 46.9358 43.6576H43.0342V43.4113H43.6952C43.8854 43.3984 44.2734 43.2765 44.3045 42.8928C44.3356 42.5092 44.3174 38.5938 44.3045 36.684C44.2958 36.4939 44.1748 36.1137 43.7601 36.1137H43.1249V35.8156ZM45.458 36.1266H46.7931C46.9184 36.1266 47.2312 36.1966 47.4801 36.4766C47.7912 36.8266 47.856 37.3062 47.856 37.5136L47.8561 37.5658C47.8571 37.7884 47.8589 38.1848 47.7393 38.4598C47.6097 38.7579 47.3375 39.1468 46.9097 39.2246C46.7236 39.2584 46.5988 39.2874 46.5044 39.3093C46.3819 39.3377 46.3106 39.3542 46.2227 39.3542H45.4321V36.1266H45.458ZM45.4321 39.6264V42.3873C45.4364 42.5947 45.4761 43.0406 45.6006 43.165C45.7561 43.3206 45.8987 43.4243 46.1839 43.4243C46.2183 43.4243 46.2545 43.4245 46.2919 43.4247C46.5636 43.4261 46.8975 43.4278 47.0912 43.3595C47.3116 43.2817 48.0245 42.9965 48.1541 42.3873C48.2837 41.7781 48.2578 41.2337 48.2189 40.9485C48.18 40.6634 47.9078 40.0153 47.3116 39.8208C46.7153 39.6264 46.495 39.6264 46.3913 39.6264H45.4321Z"
        fill="#FF00DD" />
</svg>