<svg width="299" height="299" viewBox="0 0 299 299" fill="none" xmlns="http://www.w3.org/2000/svg">
    <path
        d="M120.167 298.133L120.984 296.157C134.12 264.259 146.192 223.671 155.805 181.101C181.702 217.425 209.03 250.823 233.841 275.317C220.61 243.061 200.098 205.093 176.337 167.338C220.34 174.74 263.253 179.004 298.133 178.833C265.933 165.424 224.618 153.066 181.101 143.195C217.425 117.298 250.823 89.9696 275.317 65.159C243.061 78.3899 205.093 98.9021 167.338 122.663C174.74 78.6597 179.004 35.7472 178.833 0.866912C165.424 33.067 153.066 74.3822 143.195 117.899C117.862 82.3282 91.1248 49.5447 66.7122 25.2013L65.159 23.6833L65.973 25.6968C79.2852 57.5409 99.4527 94.7286 122.663 131.662C79.6199 124.45 37.5711 120.142 3.0058 120.161L0.866904 120.167L2.84336 120.984C34.7411 134.12 75.3289 146.192 117.899 155.805C82.3282 181.138 49.5447 207.875 25.2013 232.288L23.6833 233.841L25.6967 233.027C57.5409 219.715 94.7286 199.547 131.662 176.337C124.45 219.38 120.142 261.429 120.161 295.994L120.167 298.133Z"
        fill="#F92680" />
</svg>