<svg width="343" height="343" viewBox="0 0 343 343" fill="none" preserveAspectRatio="none"
    xmlns="http://www.w3.org/2000/svg">
    <path
        d="M231.692 327.952C228.667 327.952 225.642 327.65 222.618 326.969C207.419 323.718 193.959 312.526 184.733 295.361C175.205 277.515 170.139 254.074 169.61 225.415C167.114 253.998 160.46 277.062 149.646 294.151C139.287 310.636 125.071 320.844 109.645 323.037C107.603 323.34 105.561 323.491 103.52 323.491C84.9175 323.491 68.1304 311.543 62.2322 293.395C57.3926 278.574 60.4173 261.333 70.7014 244.849C81.3635 227.684 99.1337 211.577 123.71 196.832C97.7726 208.931 74.4067 214.677 54.2167 213.921C34.7829 213.165 18.8275 205.981 9.22405 193.731C-3.78223 177.096 -2.95043 153.579 11.1901 137.85C21.6254 126.281 38.0345 120.231 57.4683 120.836C77.6582 121.441 100.495 128.852 125.6 142.765C102.083 126.356 85.4469 109.04 76.0703 91.1188C66.9961 73.8781 65.1813 56.4861 71.0039 42.0432C78.9437 22.4583 99.663 11.4182 120.382 15.804C135.582 19.0556 149.041 30.2469 158.267 47.412C167.795 65.2577 172.861 88.6991 173.39 117.358C175.886 88.7747 182.54 65.7114 193.354 48.6219C203.713 32.1374 217.929 21.929 233.355 19.7361C254.302 16.787 274.265 29.2639 280.768 49.3781C285.607 64.1991 282.583 81.4398 272.299 97.9244C261.637 115.09 243.866 131.196 219.291 145.941C245.227 133.843 268.593 128.096 288.783 128.852C308.217 129.608 324.173 136.792 333.776 149.042C346.782 165.677 345.95 189.194 331.81 204.923C321.375 216.492 304.966 222.542 285.532 221.937C265.342 221.332 242.505 213.921 217.4 200.008C240.917 216.417 257.553 233.733 266.93 251.654C276.004 268.895 277.819 286.287 271.996 300.73C265.191 317.517 249.084 327.952 231.692 327.952ZM170.517 210.519C169.307 245.907 174.298 274.34 185.414 295.059C194.488 311.997 207.797 323.113 222.769 326.289C243.11 330.599 263.527 319.786 271.316 300.503C277.063 286.287 275.248 269.122 266.325 252.108C255.36 231.313 234.565 211.275 204.545 192.522L204.923 191.917C234.943 210.67 262.09 220.576 285.607 221.332C304.814 221.937 321.072 215.963 331.281 204.62C345.194 189.194 346.026 166.056 333.171 149.722C323.719 137.623 307.915 130.591 288.708 129.835C265.266 128.927 237.439 136.943 206.209 153.503L205.831 152.823C237.136 136.187 259.217 117.66 271.618 97.6975C281.751 81.3642 284.7 64.3503 280.012 49.7562C273.584 30.0201 253.999 17.7701 233.431 20.6435C218.232 22.7608 204.243 32.8935 194.034 49.1512C181.482 69.0386 174.525 97.0926 173.315 132.481H172.559C173.769 97.0926 168.778 68.6605 157.662 47.9414C148.588 31.0031 135.279 19.8874 120.307 16.7114C99.9655 12.4012 79.5487 23.2145 71.76 42.4969C66.0131 56.713 67.8279 73.8781 76.7508 90.892C87.7154 111.687 108.51 131.725 138.531 150.478L138.153 151.083C108.132 132.33 80.9854 122.424 57.4683 121.668C38.2613 121.063 22.0035 127.037 11.7951 138.38C-2.11863 153.806 -2.95043 176.944 9.90461 193.278C19.3568 205.377 35.161 212.409 54.3679 213.165C77.8851 214.073 105.637 206.057 136.867 189.497L137.245 190.177C105.939 206.813 83.8589 225.34 71.4576 245.302C61.3248 261.636 58.3757 278.65 63.064 293.244C69.4915 312.98 89.0765 325.23 109.645 322.356C124.844 320.239 138.833 310.106 149.041 293.849C161.594 273.961 168.551 245.907 169.761 210.519H170.517Z"
        fill="#07FFF7" />
    <path
        d="M223.601 331.884C219.593 331.884 215.585 331.355 211.577 330.221C196.605 325.911 183.977 313.812 176.037 296.042C167.719 277.591 164.316 253.847 165.829 225.188C161.367 253.469 153.049 276.079 141.177 292.336C129.683 308.065 114.787 317.29 99.2849 318.349C98.2263 318.424 97.2432 318.424 96.1846 318.424C76.3727 318.424 58.905 304.965 53.9898 285.455C50.2089 270.332 54.4435 253.394 65.7862 237.59C77.5826 221.181 96.4871 206.36 122.046 193.353C95.2772 203.637 71.6088 207.721 51.5701 205.528C32.2119 203.411 16.7858 195.168 8.08977 182.238C-3.70661 164.694 -1.28684 141.329 13.9123 126.659C25.1038 115.846 41.891 111.006 61.2491 112.972C81.3635 115.014 103.671 123.937 127.642 139.59C105.334 121.593 89.9839 103.142 81.8172 84.6157C73.9529 66.8457 73.4236 49.3025 80.2292 35.3133C89.6058 16.409 111.081 6.80556 131.423 12.6281C146.395 16.9383 159.023 29.037 166.963 46.8071C175.281 65.2577 178.684 89.0015 177.171 117.66C181.633 89.3796 189.951 66.8457 201.823 50.5123C213.317 34.784 228.213 25.5586 243.715 24.5C264.812 23.0633 283.868 36.8256 288.935 57.3935C292.715 72.517 288.481 89.4553 277.138 105.259C265.342 121.668 246.437 136.489 220.878 149.495C247.647 139.211 271.316 135.128 291.354 137.321C310.713 139.438 326.139 147.681 334.835 160.611C346.631 178.154 344.211 201.52 329.012 216.19C317.821 227.003 301.033 231.843 281.675 229.877C261.561 227.835 239.254 218.912 215.283 203.259C237.59 221.256 252.94 239.707 261.107 258.233C268.971 276.003 269.501 293.546 262.695 307.536C255.209 322.735 239.934 331.884 223.601 331.884ZM167.795 210.367C164.089 245.605 167.114 274.34 176.718 295.739C184.582 313.282 197.059 325.23 211.804 329.465C231.767 335.211 252.865 325.759 262.015 307.082C268.745 293.319 268.14 276.003 260.427 258.46C250.974 236.985 231.616 215.509 202.957 194.714L203.411 194.11C232.07 214.904 258.461 226.701 281.826 229.045C300.958 231.011 317.594 226.171 328.558 215.509C343.531 201.066 345.95 178.079 334.305 160.838C325.76 148.134 310.486 139.968 291.354 137.926C267.988 135.355 239.783 141.404 207.418 155.847L207.116 155.167C239.48 140.724 262.846 123.786 276.609 104.73C287.876 89.1528 292.035 72.3657 288.33 57.4691C283.339 37.2793 264.586 23.7438 243.866 25.1806C228.592 26.2392 213.922 35.3889 202.503 50.8904C188.665 69.8704 179.742 97.3195 176.037 132.557L175.281 132.481C178.986 97.2438 175.961 68.5093 166.358 47.1096C158.494 29.5664 146.017 17.6188 131.271 13.3843C111.308 7.63735 90.2108 17.0895 81.061 35.767C74.331 49.5293 74.936 66.8457 82.649 84.3889C92.1012 105.864 111.459 127.34 140.119 148.134L139.665 148.739C111.006 127.944 84.6151 116.148 61.2491 113.804C42.1178 111.838 25.4819 116.677 14.5173 127.34C-0.455044 141.782 -2.87482 164.77 8.77033 182.011C17.3152 194.715 32.59 202.881 51.7213 204.923C75.0872 207.494 103.293 201.444 135.657 187.002L135.96 187.682C103.595 202.125 80.2292 219.063 66.4668 238.119C55.1997 253.696 51.0407 270.483 54.746 285.38C59.7368 305.569 78.49 319.105 99.2093 317.668C114.484 316.61 129.154 307.46 140.572 291.958C154.41 272.978 163.333 245.529 167.039 210.292L167.795 210.367Z"
        fill="#07FFF7" />
    <path
        d="M215.358 335.287C210.368 335.287 205.377 334.455 200.462 332.64C185.867 327.347 174.071 314.341 167.341 296.042C160.384 277.062 158.645 253.091 162.123 224.659C155.696 252.562 145.866 274.491 132.784 289.917C120.231 304.738 104.729 312.98 89.1521 312.98C67.9791 312.98 49.9821 297.856 46.3524 277.062C43.6302 261.711 48.999 245.076 61.476 230.103C74.4067 214.602 94.2942 201.066 120.685 189.875C93.3111 198.269 69.4159 200.688 49.5284 197.134C30.3971 193.656 15.576 184.355 7.78731 170.895C-2.79919 152.596 1.28417 129.457 17.4664 115.846C29.414 105.864 46.5037 102.159 65.7106 105.486C85.5981 108.889 107.225 119.4 130.137 136.64C109.191 117.131 95.1259 97.6219 88.2447 78.642C81.666 60.3426 82.3465 42.875 90.0596 29.3395C100.646 11.0401 122.726 2.94907 142.614 10.2083C157.208 15.5015 169.005 28.5077 175.735 46.8071C182.691 65.787 184.431 89.7577 180.952 118.19C187.38 90.287 197.21 68.358 210.292 52.9321C222.845 38.1111 238.346 29.8688 253.923 29.8688C275.097 29.8688 293.094 44.9923 296.723 65.787C299.445 81.1373 294.077 97.7731 281.6 112.745C268.669 128.247 248.781 141.782 222.391 152.974C249.765 144.58 273.66 142.16 293.547 145.715C312.679 149.193 327.5 158.494 335.288 171.954C345.875 190.253 341.791 213.392 325.609 227.003C313.662 236.985 296.572 240.69 277.365 237.363C257.478 233.96 235.851 223.449 212.939 206.208C233.885 225.718 247.95 245.227 254.831 264.207C261.41 282.506 260.729 299.974 253.016 313.509C245.001 327.272 230.482 335.287 215.358 335.287ZM165.072 209.989C158.947 244.849 159.93 273.735 168.022 295.815C174.676 313.887 186.246 326.667 200.689 331.96C220.198 339.068 241.9 331.128 252.336 313.131C259.973 299.823 260.653 282.582 254.15 264.509C246.21 242.429 228.365 219.668 201.293 196.907L201.747 196.302C228.894 219.063 254.377 232.674 277.516 236.606C296.496 239.858 313.359 236.228 325.08 226.398C341.035 213.014 345.043 190.253 334.608 172.256C326.97 158.948 312.301 149.798 293.396 146.395C270.257 142.236 241.673 146.244 208.402 158.418L208.175 157.738C241.447 145.639 265.947 130.364 280.995 112.292C293.32 97.5463 298.614 81.0617 295.967 65.9383C292.337 45.446 274.643 30.625 253.848 30.625C238.497 30.625 223.223 38.716 210.821 53.3858C195.622 71.3071 184.884 98.0756 178.684 133.011L177.928 132.86C184.053 98 183.07 69.1142 174.978 47.0339C168.324 28.9614 156.755 16.1821 142.312 10.8889C122.802 3.78086 101.1 11.7207 90.6645 29.7176C83.0271 43.0262 82.3465 60.267 88.8497 78.3395C96.7895 100.42 114.635 123.181 141.707 145.941L141.253 146.546C114.106 123.786 88.6228 110.174 65.4837 106.242C46.5037 102.991 29.6409 106.62 17.9201 116.451C1.96473 129.835 -2.04301 152.596 8.39225 170.593C16.0297 183.901 30.6995 193.051 49.604 196.454C72.7431 200.613 101.327 196.605 134.598 184.431L134.825 185.111C101.553 197.21 77.0533 212.485 62.0053 230.557C49.7552 245.378 44.462 261.863 47.1086 276.91C50.7383 297.403 68.4328 312.224 89.2278 312.224C104.578 312.224 119.853 304.133 132.254 289.463C147.454 271.542 158.191 244.773 164.392 209.838L165.072 209.989Z"
        fill="#07FFF7" />
    <path
        d="M206.814 338.009C200.84 338.009 194.866 336.799 189.119 334.228C174.903 327.877 164.089 314.114 158.645 295.437C152.974 276.003 152.974 252.032 158.418 223.903C150.025 251.276 138.682 272.449 124.617 286.968C111.081 300.881 95.0503 307.989 79.5487 306.931C58.4513 305.418 41.5129 289.085 39.32 268.063C37.6564 252.562 44.2351 236.304 57.6951 222.315C71.6844 207.721 92.4793 195.622 119.551 186.321C91.6475 192.748 67.6011 193.58 48.016 188.59C29.1872 183.826 15.0466 173.466 8.1654 159.477C-1.1356 140.497 4.61136 117.66 21.701 105.184C34.2536 96.0339 51.6457 93.5386 70.5502 98.2268C90.2108 103.066 111.006 115.014 132.632 133.843C113.047 112.897 100.419 92.4799 94.8991 73.0463C89.6059 54.2932 91.4963 36.9012 100.192 24.0463C111.989 6.50308 134.598 -2.1193e-06 153.957 8.62037C168.173 14.9722 178.986 28.7346 184.431 47.412C190.102 66.8457 190.102 90.8164 184.658 118.946C193.051 91.5725 204.394 70.3997 218.459 55.8812C231.994 41.9676 248.025 34.8596 263.527 35.9182C284.624 37.4306 301.563 53.7639 303.756 74.7855C305.419 90.287 298.841 106.545 285.381 120.534C271.391 135.128 250.596 147.227 223.525 156.528C251.428 150.1 275.475 149.269 295.06 154.259C313.888 159.023 328.029 169.383 334.91 183.372C344.211 202.352 338.464 225.188 321.375 237.665C308.822 246.815 291.43 249.31 272.526 244.622C252.865 239.782 232.07 227.835 210.443 209.006C230.028 229.952 242.656 250.369 248.177 269.802C253.47 288.556 251.579 305.948 242.883 318.802C234.565 331.128 220.879 338.009 206.814 338.009ZM162.426 209.46C153.881 243.79 152.822 272.676 159.401 295.285C164.77 313.736 175.432 327.347 189.421 333.623C208.402 342.093 230.633 335.741 242.203 318.5C250.748 305.796 252.638 288.631 247.345 270.105C240.917 247.495 224.811 223.6 199.327 198.949L199.857 198.42C225.34 222.995 249.84 238.346 272.601 243.941C291.279 248.554 308.368 246.059 320.77 237.06C337.557 224.81 343.153 202.427 334.078 183.75C327.348 169.988 313.359 159.779 294.757 155.091C271.996 149.344 243.186 151.386 209.158 161.14L208.931 160.384C242.959 150.63 268.518 137.094 284.776 120.156C298.084 106.242 304.512 90.2114 302.924 75.0123C300.807 54.2176 284.171 38.1111 263.451 36.6744C248.177 35.6157 232.372 42.5725 218.912 56.4105C202.503 73.2731 189.875 99.2099 181.33 133.616L180.574 133.465C189.119 99.1343 190.178 70.2485 183.599 47.6389C178.23 29.1883 167.568 15.5772 153.579 9.30092C134.598 0.831786 112.367 7.18364 100.797 24.4244C92.2525 37.1281 90.362 54.2932 95.6553 72.8194C102.083 95.429 118.189 119.324 143.673 143.975L143.143 144.505C117.66 119.929 93.1599 104.579 70.3989 98.983C51.7213 94.3704 34.6317 96.8657 22.2303 105.864C5.44315 118.114 -0.152567 140.497 8.92158 159.174C15.6516 172.937 29.6409 183.145 48.2429 187.833C71.0039 193.58 99.8143 191.539 133.842 181.784L134.069 182.54C100.041 192.295 74.4823 205.83 58.2244 222.769C44.9157 236.682 38.4882 252.713 40.0761 267.912C42.2691 288.556 58.905 304.662 79.6243 306.099C94.8991 307.157 110.703 300.201 124.163 286.363C140.572 269.5 153.2 243.563 161.745 209.157L162.426 209.46Z"
        fill="#07FFF7" />
    <path
        d="M198.117 340.202C191.161 340.202 184.204 338.539 177.701 335.06C163.938 327.725 154.108 313.282 150.025 294.227C145.79 274.491 147.378 250.52 154.788 222.844C144.504 249.613 131.725 269.954 116.677 283.414C102.158 296.344 85.6737 302.318 70.3233 300.201C49.3771 297.252 33.6486 279.784 32.8924 258.611C32.3631 243.034 40.0005 227.306 54.3679 214.224C69.3403 200.613 90.8913 190.026 118.567 182.616C90.2864 187.077 66.2399 186.17 47.033 179.894C28.5822 173.844 15.1979 162.502 9.29966 148.134C1.35978 128.549 8.6191 106.167 26.6162 94.9753C39.7737 86.733 57.2414 85.4475 75.7678 91.4213C94.9747 97.6219 114.938 111.006 135.203 131.272C117.131 109.04 105.939 87.7917 101.78 67.9799C97.7726 48.9244 100.873 31.6836 110.476 19.4336C123.483 2.79784 146.47 -2.11729 165.148 7.78858C178.911 15.1235 188.741 29.5664 192.824 48.6219C197.059 68.358 195.471 92.3287 188.06 120.005C198.344 93.2361 211.124 72.8951 226.172 59.4352C240.69 46.5046 257.175 40.5309 272.525 42.6481C293.472 45.5972 309.2 63.0648 309.956 84.2376C310.486 99.8148 302.848 115.543 288.481 128.625C273.509 142.236 251.957 152.823 224.281 160.233C252.562 155.772 276.609 156.679 295.816 162.955C314.267 169.005 327.651 180.347 333.549 194.714C341.489 214.299 334.23 236.682 316.233 247.873C303.075 256.116 285.607 257.401 267.081 251.427C247.874 245.227 227.911 231.843 207.645 211.577C225.718 233.809 236.909 255.057 241.068 274.869C245.076 293.924 241.976 311.165 232.372 323.415C223.903 334.304 211.124 340.202 198.117 340.202ZM159.779 208.704C148.815 242.353 145.79 271.088 150.781 294.076C154.864 312.904 164.543 327.196 178.079 334.38C196.454 344.134 219.064 339.295 231.843 322.961C241.295 310.863 244.32 293.849 240.388 275.02C235.548 252.032 221.105 227.003 197.437 200.688L197.966 200.159C221.635 226.474 245.001 243.488 267.383 250.671C285.683 256.569 302.924 255.284 315.93 247.193C333.549 236.153 340.657 214.224 332.944 194.941C327.197 180.725 313.964 169.61 295.74 163.56C273.433 156.225 244.547 156.225 209.914 163.636L209.763 162.88C244.396 155.545 270.786 143.748 288.178 128.02C302.395 115.089 309.956 99.588 309.427 84.2376C308.671 63.4429 293.245 46.2778 272.677 43.4043C257.478 41.287 241.22 47.1852 226.928 59.9645C209.385 75.6173 195.017 100.647 184.053 134.296L183.296 134.069C194.261 100.42 197.286 71.6852 192.295 48.6975C188.212 29.8688 178.532 15.5772 164.997 8.39352C146.622 -1.36111 124.012 3.47839 111.233 19.8117C101.78 31.9105 98.7556 48.9244 102.688 67.7531C107.527 90.7407 121.97 115.77 145.639 142.085L145.109 142.614C121.441 116.299 98.075 99.2855 75.6922 92.1019C57.3926 86.2037 40.1518 87.4892 27.1455 95.5802C9.52651 106.62 2.41843 128.549 10.1315 147.832C15.8784 162.048 29.1115 173.164 47.3355 179.213C69.6427 186.548 98.5288 186.548 133.162 179.137L133.313 179.894C98.68 187.228 72.2894 199.025 54.8972 214.753C40.6811 227.684 33.1193 243.261 33.6486 258.611C34.4048 279.406 49.8308 296.571 70.3989 299.444C85.5981 301.562 101.856 295.664 116.148 282.884C133.691 267.231 148.058 242.202 159.023 208.552L159.779 208.704Z"
        fill="#07FFF7" />
    <path
        d="M189.346 341.715C181.406 341.715 173.466 339.522 166.282 335.06C153.125 326.818 144.278 311.694 141.555 292.412C138.682 272.373 141.933 248.63 151.31 221.559C139.211 247.571 125.071 266.929 109.04 279.33C93.6892 291.278 76.8264 296.042 61.6272 292.79C40.9079 288.404 26.4649 269.878 27.2211 248.705C27.7504 233.128 36.4465 218.005 51.7969 205.906C67.6767 193.429 89.9083 184.355 118.038 178.91C89.4546 181.406 65.635 178.835 46.8818 171.198C28.8847 163.863 16.3321 151.688 11.4926 136.867C4.98945 116.753 13.7611 94.9753 32.4387 84.9938C46.2012 77.659 63.6689 77.659 81.7416 84.8426C100.495 92.3287 119.475 107.074 138.304 128.701C121.895 105.259 112.14 83.2546 109.418 63.2161C106.771 43.9336 111.081 26.9954 121.441 15.4259C135.582 -0.302464 158.872 -3.55401 176.793 7.63735C189.951 15.8796 198.798 31.0031 201.52 50.2855C204.394 70.3241 201.142 94.0679 191.766 121.139C203.864 95.1265 218.005 75.7685 234.036 63.3673C249.386 51.4198 266.249 46.6559 281.448 49.9074C302.168 54.2932 316.611 72.8195 315.855 93.9923C315.325 109.569 306.629 124.693 291.279 136.792C275.399 149.269 253.167 158.343 225.037 163.787C253.621 161.292 277.441 163.863 296.194 171.5C314.191 178.835 326.744 191.009 331.583 205.83C338.086 225.944 329.315 247.722 310.637 257.704C296.874 265.039 279.407 265.039 261.334 257.855C242.581 250.369 223.601 235.623 204.772 213.997C221.181 237.438 230.936 259.443 233.658 279.481C236.305 298.764 231.994 315.702 221.635 327.272C213.09 336.799 201.293 341.715 189.346 341.715ZM157.208 207.796C143.975 240.614 138.909 269.046 142.236 292.336C144.958 311.392 153.654 326.289 166.66 334.455C184.279 345.495 207.192 342.244 221.105 326.818C231.389 315.4 235.548 298.688 232.977 279.633C229.801 256.343 217.098 230.406 195.32 202.503L195.925 202.049C217.703 229.952 239.859 248.554 261.637 257.25C279.482 264.358 296.799 264.358 310.334 257.174C328.71 247.42 337.33 226.02 330.902 206.208C326.139 191.614 313.737 179.591 295.967 172.332C274.189 163.485 245.379 161.443 210.368 166.358L210.292 165.602C245.379 160.687 272.525 150.781 290.976 136.262C306.1 124.39 314.72 109.418 315.25 94.0679C316.006 73.2731 301.714 55.125 281.448 50.7392C266.476 47.5633 249.84 52.2515 234.641 64.0478C216.115 78.4151 199.932 102.386 186.699 135.204L186.019 134.901C199.252 102.083 204.318 73.6512 200.991 50.3611C198.269 31.3056 189.573 16.409 176.566 8.24229C158.947 -2.79783 136.035 0.453708 122.122 15.8796C111.838 27.2978 107.679 44.0093 110.25 63.0648C113.425 86.3549 126.129 112.292 147.907 140.194L147.302 140.648C125.524 112.745 103.368 94.1435 81.5904 85.4475C63.7445 78.3395 46.428 78.3395 32.8924 85.5231C14.5173 95.2778 5.89687 116.677 12.3244 136.489C17.0883 151.083 29.4896 163.106 47.2598 170.366C69.0378 179.213 97.8482 181.255 132.859 176.34L132.935 177.096C97.8482 182.011 70.7014 191.917 52.2506 206.435C37.1271 218.307 28.5066 233.279 27.9773 248.63C27.2211 269.424 41.5129 287.573 61.7785 291.958C76.7508 295.134 93.3867 290.446 108.586 278.65C127.112 264.282 143.295 240.312 156.528 207.494L157.208 207.796Z"
        fill="#07FFF7" />
    <path
        d="M180.423 342.698C171.5 342.698 162.501 339.975 154.864 334.38C142.312 325.23 134.598 309.502 133.162 290.144C131.649 269.954 136.64 246.512 147.832 220.122C133.918 245.227 118.492 263.526 101.629 274.793C85.4469 285.606 68.3572 289.236 53.3849 284.926C33.0437 279.103 19.8862 259.594 22.0791 238.573C23.7427 223.071 33.4974 208.552 49.5284 197.588C66.2399 186.245 89.0765 178.759 117.509 175.281C88.8497 175.81 65.1813 171.576 47.1086 162.653C29.6409 153.957 17.9957 140.951 14.2148 125.827C9.07281 105.335 19.4325 84.162 38.715 75.5417C52.9312 69.1898 70.3989 70.3997 87.9423 78.8688C106.166 87.6404 124.012 103.671 141.253 126.583C126.507 102.008 118.341 79.3981 116.98 59.284C115.694 39.8503 121.138 23.2145 132.33 12.4012C147.529 -2.26851 170.971 -3.9321 188.136 8.46914C200.689 17.6188 208.402 33.3472 209.838 52.7052C211.351 72.8951 206.36 96.3364 195.168 122.727C209.082 97.6219 224.508 79.3225 241.371 68.0556C257.553 57.2423 274.643 53.6127 289.615 57.9228C309.956 63.7454 323.114 83.2546 320.921 104.276C319.257 119.778 309.503 134.296 293.472 145.261C276.76 156.603 253.923 164.089 225.491 167.568C254.15 167.039 277.819 171.273 295.891 180.196C313.359 188.816 325.004 201.823 328.785 216.946C333.927 237.438 323.568 258.611 304.285 267.231C290.069 273.583 272.601 272.373 255.058 263.904C236.834 255.133 218.988 239.102 201.747 216.19C216.493 240.765 224.659 263.375 226.02 283.489C227.306 302.923 221.861 319.559 210.67 330.372C202.276 338.539 191.387 342.698 180.423 342.698ZM154.713 206.738C139.211 238.573 132.179 266.627 133.918 289.992C135.355 309.199 142.916 324.701 155.318 333.699C172.105 345.949 195.168 344.285 210.141 329.843C221.181 319.181 226.55 302.772 225.264 283.565C223.676 260.123 212.863 233.355 193.051 204.015L193.656 203.562C213.468 232.901 234.263 253.015 255.36 263.224C272.677 271.617 289.918 272.752 303.907 266.551C322.887 258.082 333.02 237.363 328.029 217.173C324.324 202.276 312.754 189.421 295.513 180.952C274.416 170.593 245.832 166.585 210.519 169.08L210.443 168.324C245.757 165.829 273.509 157.889 292.942 144.731C308.822 133.918 318.501 119.551 320.089 104.352C322.282 83.7083 309.351 64.5015 289.388 58.8302C274.643 54.5957 257.704 58.1497 241.749 68.8873C222.24 81.9691 204.469 104.73 188.968 136.565L188.287 136.262C203.789 104.427 210.821 76.3735 209.082 53.0077C207.645 33.8009 200.084 18.2994 187.682 9.30093C170.895 -2.94907 147.832 -1.28549 132.859 13.1574C121.819 23.8194 116.45 40.2284 117.736 59.4352C119.324 82.8765 130.137 109.645 149.949 138.985L149.344 139.438C129.532 109.872 108.737 89.7577 87.5642 79.5494C70.2477 71.1559 53.0068 70.0216 39.0175 76.2222C20.0374 84.6914 9.9046 105.41 14.8954 125.6C18.6007 140.497 30.1702 153.352 47.4111 161.821C68.5085 172.181 97.092 176.188 132.406 173.693L132.481 174.449C97.1676 176.944 69.4159 184.884 49.9821 198.042C34.1023 208.855 24.4232 223.222 22.8353 238.421C20.6423 259.216 33.573 278.347 53.5361 284.094C68.2816 288.329 85.22 284.775 101.175 274.037C120.685 260.955 138.455 238.194 153.957 206.36L154.713 206.738Z"
        fill="#07FFF7" />
    <path
        d="M171.5 343C161.594 343 151.613 339.597 143.521 332.792C131.574 322.81 124.995 306.552 124.919 287.119C124.844 266.929 131.423 243.79 144.429 218.307C128.852 242.353 112.064 259.594 94.521 269.651C77.6582 279.33 60.2661 281.75 45.6719 276.381C25.7844 269.122 14.0636 248.781 17.6932 227.986C20.4155 212.636 31.1532 198.873 47.9404 189.043C65.4081 178.91 88.6984 173.012 117.282 171.5C88.6984 169.988 65.4081 164.165 47.9404 153.957C31.1532 144.202 20.4155 130.364 17.6932 115.014C13.988 94.2191 25.7844 73.8025 45.6719 66.6188C60.2661 61.3256 77.6582 63.6698 94.521 73.3488C112.064 83.4059 128.776 100.647 144.429 124.693C131.423 99.1343 124.844 76.071 124.919 55.8812C124.995 36.4475 131.574 20.1898 143.521 10.2083C159.704 -3.40278 183.221 -3.40278 199.403 10.2083C211.351 20.1898 217.929 36.4475 218.005 55.8812C218.081 76.071 211.502 99.2099 198.496 124.693C214.073 100.647 230.86 83.4059 248.403 73.3488C265.266 63.6698 282.658 61.25 297.253 66.6188C317.14 73.8781 328.861 94.2191 325.231 115.014C322.509 130.364 311.771 144.127 294.984 153.957C277.516 164.089 254.226 169.988 225.642 171.5C254.226 173.012 277.516 178.835 294.984 189.043C311.771 198.798 322.509 212.636 325.231 227.986C328.936 248.781 317.14 269.198 297.253 276.381C282.658 281.674 265.266 279.33 248.403 269.651C230.86 259.594 214.148 242.353 198.496 218.307C211.502 243.866 218.081 266.929 218.005 287.119C217.929 306.552 211.351 322.81 199.403 332.792C191.388 339.597 181.406 343 171.5 343ZM152.293 205.452C134.598 236.153 125.676 263.602 125.751 287.043C125.827 306.25 132.33 322.281 144.051 332.111C160.006 345.495 183.07 345.495 199.025 332.111C210.746 322.281 217.249 306.25 217.324 287.043C217.4 263.526 208.477 236.077 190.783 205.452L191.463 205.074C209.158 235.775 228.516 257.25 248.857 268.895C265.569 278.423 282.658 280.843 297.101 275.549C316.611 268.441 328.18 248.403 324.551 227.986C321.904 212.863 311.242 199.252 294.682 189.573C274.34 177.776 246.135 171.802 210.67 171.802V171.046C246.059 171.046 274.34 165.073 294.682 153.276C311.317 143.597 321.904 129.986 324.551 114.863C328.18 94.3704 316.611 74.4074 297.101 67.2994C282.658 62.0818 265.569 64.4259 248.857 73.9537C228.44 85.5988 209.158 107.074 191.463 137.775L190.783 137.397C208.477 106.696 217.4 79.2469 217.324 55.8056C217.249 36.5988 210.746 20.5679 199.025 10.7377C183.07 -2.6466 160.006 -2.6466 144.051 10.7377C132.33 20.5679 125.827 36.5988 125.751 55.8056C125.676 79.3225 134.598 106.772 152.293 137.397L151.612 137.775C133.918 107.074 114.56 85.5988 94.2185 73.9537C77.507 64.4259 60.4173 62.0062 45.9743 67.2994C26.4649 74.4074 14.8954 94.446 18.525 114.863C21.1717 129.986 31.8338 143.597 48.3941 153.276C68.7353 165.073 96.9408 171.046 132.406 171.046V171.802C97.0164 171.802 68.7353 177.776 48.3941 189.573C31.7582 199.252 21.1717 212.863 18.525 227.986C14.8954 248.478 26.4649 268.441 45.9743 275.549C60.4173 280.767 77.507 278.423 94.2185 268.895C114.635 257.25 133.918 235.775 151.612 205.074L152.293 205.452Z"
        fill="#07FFF7" />
</svg>