<svg width="79" height="90" viewBox="0 0 79 90" fill="none" xmlns="http://www.w3.org/2000/svg">
    <path
        d="M78.761 31.8517L40.0018 0.143046C39.7868 -0.0476821 39.4761 -0.0476821 39.2371 0.143046L0.215062 31.8517C0.0716864 31.9709 0 32.1377 0 32.3046V89.404C0 89.7377 0.262855 90 0.597399 90H78.4026C78.7371 90 79 89.7377 79 89.404V32.3285C78.9761 32.1377 78.8805 31.9709 78.761 31.8517ZM77.7813 88.8318H1.1709V32.6146L39.6195 1.38278L77.7813 32.6146V88.8318Z"
        fill="#07FFF7" />
    <path
        d="M7.57505 35.69C7.43167 35.8092 7.35999 35.9761 7.35999 36.1429V82.6092C7.35999 82.9429 7.62284 83.2052 7.95738 83.2052H71.2816C71.6162 83.2052 71.879 82.9429 71.879 82.6092V36.1429C71.879 35.9761 71.8074 35.7853 71.664 35.69L40.0974 9.8701C39.8824 9.67937 39.5717 9.67937 39.3328 9.8701L7.57505 35.69ZM70.6842 36.429V82.037H8.55478V36.429L39.7151 11.086L70.6842 36.429Z"
        fill="#07FFF7" />
    <path
        d="M15.3172 76.4106H64.1845C64.519 76.4106 64.7819 76.1483 64.7819 75.8145V39.9576C64.7819 39.7907 64.7102 39.6 64.5668 39.5046L40.2168 19.5735C40.0018 19.3827 39.6911 19.3827 39.4522 19.5735L14.9349 39.5046C14.7915 39.6238 14.7198 39.7907 14.7198 39.9576V75.8145C14.7198 76.1483 15.0066 76.4106 15.3172 76.4106ZM15.9146 40.2437L39.8345 20.8132L63.5871 40.2437V75.2185H15.9146V40.2437Z"
        fill="#07FFF7" />
    <path
        d="M40.3364 29.3008C40.1213 29.11 39.8107 29.11 39.5717 29.3008L22.3188 43.3193C22.1754 43.4385 22.1038 43.6054 22.1038 43.7723V69.02C22.1038 69.3537 22.3666 69.616 22.7012 69.616H57.0874C57.422 69.616 57.6848 69.3537 57.6848 69.02V43.7723C57.6848 43.6054 57.6131 43.4147 57.4698 43.3193L40.3364 29.3008ZM56.49 68.4239H23.2986V44.0584L39.954 30.5167L56.49 44.0584V68.4239Z"
        fill="#07FFF7" />
    <path
        d="M29.7026 47.1337C29.5592 47.2529 29.4875 47.4198 29.4875 47.5867V62.2251C29.4875 62.5589 29.7504 62.8211 30.0849 62.8211H50.0142C50.3487 62.8211 50.6116 62.5589 50.6116 62.2251V47.5867C50.6116 47.4198 50.5399 47.229 50.3965 47.1337L40.4558 39.0039C40.2407 38.8132 39.9301 38.8132 39.6911 39.0039L29.7026 47.1337ZM49.4168 47.8966V61.6529H30.6823V47.8966L40.0735 40.2675L49.4168 47.8966Z"
        fill="#07FFF7" />
</svg>